<svg version="1.1" viewBox="0.0 0.0 50.0 50.0" fill="none" stroke="none" stroke-linecap="square" stroke-miterlimit="10" xmlns:xlink="http://www.w3.org/1999/xlink" xmlns="http://www.w3.org/2000/svg"><clipPath id="p.0"><path d="m0 0l50.0 0l0 50.0l-50.0 0l0 -50.0z" clip-rule="nonzero"/></clipPath><g clip-path="url(#p.0)"><path fill="#000000" fill-opacity="0.0" d="m0 0l50.0 0l0 50.0l-50.0 0z" fill-rule="evenodd"/><path fill="#ff0000" d="m-0.007874016 0l0 5.1010878E-20c0 -2.3004616E-4 1.8648943E-4 -4.1653545E-4 4.1653542E-4 -4.1653545E-4l49.983837 4.1653545E-4c1.1062622E-4 0 2.1362305E-4 4.388486E-5 2.937317E-4 1.22000405E-4c7.6293945E-5 7.811554E-5 1.2207031E-4 1.8406296E-4 1.2207031E-4 2.9453504E-4l-4.15802E-4 28.094072c0 2.3078918E-4 -1.8692017E-4 4.15802E-4 -4.196167E-4 4.15802E-4l-49.983833 -4.15802E-4l0 0c-2.3004599E-4 0 -4.1653588E-4 -1.8692017E-4 -4.1653588E-4 -4.15802E-4z" fill-rule="evenodd"/><path fill="#ff0000" d="m-0.007874016 9.559055l5.7952757 0l0 40.440945l-5.7952757 0z" fill-rule="evenodd"/></g></svg>